<?xml version="1.0" encoding="UTF-8"?>
<svg id="Layer_1" data-name="Layer 1" xmlns="http://www.w3.org/2000/svg" viewBox="0 0 1138 119">
  <defs>
    <style>
      .cls-1 {
        fill: #020202;
      }

      .cls-1, .cls-2 {
        stroke-width: 0px;
      }

      .cls-2 {
        fill: #151515;
      }
    </style>
  </defs>
  <path class="cls-2" d="M560.9,73.57c-.97,6.03-1.88,11.66-2.8,17.35h-36.76c-1.08-2.54.89-3.74,2.13-5.16,6.81-7.75,13.88-15.29,20.45-23.24,5.54-6.7,9.26-14.24,7.3-23.41-1.45-6.78-5.51-10.84-11.42-11.38-6.8-.62-11.31,2.26-14.24,9.1.25.8.96.77,1.59.87,3.6.59,4.57,3,4.12,6.2-.47,3.3-2.81,4.35-5.79,4.09-3.29-.28-4.38-2.54-4.53-5.52-.51-10.14,9.93-19.25,20.68-18.11,8.2.86,14.74,4.25,17.92,12.23,3.25,8.14,1.12,15.57-4.69,21.62-6.79,7.08-14.13,13.63-21.28,20.35-1.29,1.21-2.83,2.14-4.25,3.2.27.4.54.8.8,1.21,7.89,0,15.78-.03,23.68.02,3.19.02,3.06-2.5,3.59-4.48.97-3.59.93-3.6,3.48-4.95Z"/>
  <path class="cls-2" d="M1000.36,83.16c6.65,0,13.32-.26,19.95.09,4.72.25,7.15-1.4,7.54-6.15.12-1.45-.29-3.62,3-3.24-.92,5.72-1.82,11.36-2.76,17.18h-36.68c-1.15-2.65.82-3.86,2.06-5.26,6.07-6.85,12.25-13.61,18.3-20.48,4.78-5.43,8.69-11.39,9.82-18.73,1.76-11.4-5.21-19.94-15.24-18.76-5.04.59-8.32,3.34-10.84,9.16.37.22.74.61,1.15.66,3.83.42,5.11,2.77,4.63,6.27-.45,3.31-2.79,4.4-5.77,4.1-3.89-.39-4.63-3.21-4.54-6.5.28-9.96,10.28-18.22,20.65-17.14,8.19.86,14.74,4.23,17.93,12.21,3.25,8.14,1.14,15.57-4.67,21.63-6.79,7.08-14.13,13.63-21.28,20.36-1.29,1.21-2.82,2.16-4.24,3.24.33.45.66.91.99,1.36Z"/>
  <path class="cls-2" d="M765.7,79.66c2.71,7.4,8.48,11.15,15.56,10.53,5.68-.5,9.6-4.66,11-11.76,1.1-5.61,1.03-11.24-.02-16.86-.83-4.46-2.41-8.54-7.19-9.89-4.88-1.38-9.1.44-12.84,3.67-1.4,1.21-2,3.48-4.31,3.68-1.09-3.87-1.32-28.3-.27-34.55,9.9,3.72,19.9,4.44,29.93-.36-1.33,8.45-12.01,12.63-27.32,11,0,2.95,0,5.86,0,8.78s0,5.87,0,8.78c.71.04,1.13.2,1.31.05,7.42-5.83,17.77-4.64,23.71,1.37,6.96,7.03,8.8,18.52,4.22,27.26-4.49,8.57-14.39,13.43-23.43,11.5-6.79-1.45-12.92-8.1-13.91-15.37-.43-3.15-.79-6.6,3.49-7.62,2.97-.7,5.49.21,6.16,3.43.93,4.44-2.1,5.78-6.09,6.35Z"/>
  <path class="cls-2" d="M384.44,50.01c-6.36-1.64-9.89-.38-11.94,4.92-3.49,9.01-5.57,18.47-7.08,27.98-.87,5.48,3.42,8.28,8.68,6.28,4.53-1.73,6.94-5.44,8.95-9.57.65-1.32.31-3.47,2.57-3.75,1.15,4.49-3.84,12.35-9.48,15.02-6.11,2.89-11.37,1.17-16.5-5.63-1.83,2.49-3.71,4.87-6.64,6.02-2.94,1.16-5.85,1.14-8.72-.09-3.55-1.52-5.23-4.19-3.96-7.98.73-2.2,2.64-3.36,5.05-3.42,1.41-.04,2.75.28,3.33,1.71.83,2.04.38,3.92-1.16,5.5-.57.58-1.22,1.09-1.88,1.67,4.89,2.05,8.64,1.16,10.83-3.58,4.28-9.26,6.47-19.22,7.53-29.31.58-5.49-3.74-7.89-9.05-5.87-1.48.56-2.78,2.17-4.57.9,5.86-6.37,13.65-5.4,19.54,2.96,3.21-4.68,7.16-7.93,13.24-6.79,4.78.9,7.56,4.46,6.27,8.34-.76,2.28-2.32,3.62-4.72,3.82-1.55.13-3.11-.1-3.73-1.8-.83-2.26-.34-4.25,1.63-5.78.51-.39.98-.83,1.82-1.53Z"/>
  <path class="cls-2" d="M579.22,50.64c7.14-6.13,13.11-5.34,20.03,2.91,3.06-5,7.29-7.72,13.3-6.53,4.73.94,7.28,4.77,5.76,8.62-.89,2.27-2.57,3.41-4.96,3.5-1.39.05-2.76-.27-3.32-1.7-.87-2.23-.46-4.25,1.49-5.82.51-.41,1-.84,1.52-1.29-4.63-2.21-8.6-1.43-10.73,3.18-4.42,9.56-6.49,19.89-7.87,30.26-.63,4.72,3.43,7.16,8.07,5.64,4.81-1.58,7.38-5.39,9.49-9.68.67-1.36.4-3.42,2.49-3.91,1.39,3.99-2.86,11.31-8.37,14.48-6.32,3.64-11.81,2.08-17.53-4.96-5,6.55-10.14,8.43-15.66,5.73-3.74-1.83-5.2-5.56-3.23-8.61,1.66-2.57,4.28-3.73,6.85-2.08,2.66,1.7,1.79,4.31.06,6.48-.51.64-1.21,1.12-1.85,1.69,4.86,2.37,8.56,1.15,11.14-4.21,3.27-6.79,4.27-14.29,6.07-21.54.56-2.25,1.08-4.57,1.11-6.87.06-5.63-3.7-8.06-8.97-6.09-1.55.58-2.97,2.25-4.9.8Z"/>
  <path class="cls-2" d="M855.79,75.64c.74,5.54-4.41,13.05-10.32,15.48-6.15,2.53-10.57.94-15.76-5.68-5.35,6.52-10.15,8.26-15.63,5.69-4.15-1.95-5.58-6.39-2.9-9.37,1.85-2.05,4.41-3,6.67-1.21,2.19,1.73,1.53,4.21-.15,6.19-.59.69-1.54,1.06-2.85,1.91,5.71,2.43,9.45.82,11.46-3.34,4.51-9.35,6.65-19.49,7.69-29.74.53-5.25-3.69-7.61-8.74-5.77-1.61.59-3.06,2.23-5.02.95,6.67-6.27,13.36-5.43,19.89,2.88,3.13-4.85,7.23-7.8,13.27-6.62,4.98.97,7.61,5.02,5.78,8.98-.93,2.01-2.52,3.07-4.68,3.17-1.57.07-3.06-.28-3.6-2.03-.64-2.08-.23-3.91,1.49-5.41.55-.48,1.59-.59,1.49-1.67-5.11-1.72-8.68-.86-10.76,3.78-4.24,9.45-6.3,19.62-7.69,29.81-.68,4.95,3.52,7.39,8.4,5.67,4.59-1.62,7.04-5.32,9.11-9.42.7-1.4.5-3.37,2.85-4.24Z"/>
  <path class="cls-2" d="M457.35,66.09c6.89,6.72,13.22,12.83,19.46,19.05,1.13,1.13,3.58,2.4,1.36,4.38-1.74,1.55-3.03-.36-4.14-1.47-6.34-6.34-12.63-12.73-19.27-19.44-6.04,6.13-11.64,12-17.49,17.61-1.57,1.5-3.17,5.49-5.67,3.13-2.55-2.4,1.24-4.2,2.77-5.78,5.65-5.82,11.5-11.45,18.09-17.95-6.19-5.87-11.96-11.34-17.71-16.82-.96-.92-1.89-1.88-2.8-2.85-.96-1.03-1.8-2.23-.48-3.45,1.33-1.22,2.46-.18,3.42.77,4.97,4.91,9.95,9.81,14.85,14.81,1.61,1.64,2.94,3.54,4.85,5.87,6.88-7.03,12.99-13.34,19.19-19.56,1.17-1.17,2.49-3.66,4.4-1.87,2.32,2.16-.55,3.5-1.76,4.72-6.07,6.14-12.26,12.16-19.07,18.86Z"/>
  <path class="cls-2" d="M689.89,58.26c-9.64,0-19.28.03-28.92-.02-1.56,0-3.9.53-4.06-1.73-.2-2.72,2.34-2.3,4.04-2.3,19.28-.05,38.55-.04,57.83,0,1.72,0,4.23-.36,4.06,2.31-.14,2.27-2.49,1.72-4.05,1.73-9.64.05-19.28.02-28.92.03Z"/>
  <path class="cls-2" d="M689.5,73.74c9.81,0,19.61-.01,29.42.01,1.61,0,3.86-.32,3.97,1.9.12,2.28-2.14,2.14-3.73,2.15-19.44.03-38.89.03-58.33,0-1.61,0-3.88.21-3.92-1.99-.05-2.83,2.56-2.02,4.18-2.03,9.47-.08,18.94-.04,28.42-.04Z"/>
  <path class="cls-1" d="M894.3,66.02c1.02-2.49,3.02-2,4.76-2,17.12-.02,34.23-.02,51.35,0,.99,0,2,0,2.98.16,1.09.17,1.83.86,1.73,2.03-.07.9-.7,1.52-1.6,1.63-1.15.14-2.32.18-3.47.18-16.78.01-33.57.02-50.35-.02-1.88,0-4.1.7-5.4-1.96Z"/>
  <path class="cls-2" d="M343.54,62.96c-.22-4.34,1.32-7.27,5.18-9.85-.29,3.5-2.82,8.31-5.18,9.85Z"/>
  <path class="cls-2" d="M578.45,53.55l-4.81,9.72c-.58-.26-1.15-.52-1.73-.78.35-3.81,2.71-6.74,4.96-9.72.53.26,1.05.51,1.58.77Z"/>
  <path class="cls-2" d="M819.5,53.66c-1.69,3.25-3.39,6.51-5.08,9.76-.48-.26-.96-.51-1.43-.77.31-3.99,2.45-7.05,5.19-9.8.44.27.88.54,1.32.8Z"/>
</svg>