<?xml version="1.0" encoding="UTF-8"?>
<svg id="Layer_1" data-name="Layer 1" xmlns="http://www.w3.org/2000/svg" viewBox="0 0 1138 134">
  <defs>
    <style>
      .cls-1 {
        fill: #000;
        stroke-width: 0px;
      }
    </style>
  </defs>
  <path class="cls-1" d="M495.41,98.06c7.61,0,15.22.17,22.82-.16,1.37-.06,3.04-1.93,3.87-3.37.98-1.69,1.21-3.83,1.77-5.77.57.11,1.13.23,1.7.34-.79,5.48-1.57,10.97-2.39,16.65h-37.68c1.2-1.97,1.93-3.67,3.09-5,5.93-6.76,12.48-13.05,17.8-20.25,4.16-5.62,8.14-11.99,9.9-18.63,3-11.35-4.83-20.44-15.01-19.13-5.53.71-8.84,4.1-11.09,9.46.92.25,1.63.46,2.35.63,3.31.78,4.55,3.39,3.47,6.01-.74,1.78-3.26,3.63-5.22,3.93-3.19.49-4.54-2.1-4.78-5.11-.79-10.01,9.69-19.29,20.55-18.24,8.02.77,14.46,4.01,17.74,11.74,3.44,8.1,1.55,15.58-4.25,21.7-6.75,7.12-14.1,13.66-21.24,20.41-1.32,1.24-2.85,2.25-4.29,3.36.29.47.58.94.87,1.41Z"/>
  <path class="cls-1" d="M1028.13,105.76c-1.54.1-2.68.23-3.83.23-10.97.02-21.95,0-33.94,0,1.26-2.13,1.92-3.75,3.01-5,6.04-6.88,12.68-13.31,18.15-20.61,4.09-5.47,7.6-11.74,9.75-18.19,2.41-7.2-1.1-14.81-6.45-18-7.24-4.31-15.92-.78-19.24,7.8,1.55.79,3.81,1.2,4.48,2.46.89,1.68,1.34,4.48.5,5.94-.81,1.41-3.81,2.72-5.3,2.27-1.72-.52-3.74-2.87-4.05-4.69-1.25-7.39,5.59-16.07,13.61-17.97,9.24-2.19,18.67,1.31,23.26,8.63,4.64,7.41,4,16.6-2.79,23.95-6.76,7.32-14.31,13.92-21.55,20.8-1.29,1.22-2.74,2.28-4.11,3.42.22.38.44.76.66,1.14,8.04,0,16.09.12,24.13-.16.99-.03,2.18-2.07,2.79-3.41.81-1.77,1.14-3.76,1.68-5.65.59.13,1.19.26,1.78.39-.83,5.51-1.66,11.02-2.51,16.62Z"/>
  <path class="cls-1" d="M767.53,73.73v-34.26c10.15,4.05,20.15,4.1,30.56-.19-3.95,9.16-12.41,12.34-27.46,10.89v17.57c.22.02.61.18.84.05,9.45-5.43,17.32-4.99,23.73,1.37,7.17,7.11,8.85,18.92,3.93,27.71-4.67,8.34-14.46,12.92-23.27,10.88-7.02-1.63-13.11-8.68-13.77-16.06-.28-3.16-.05-6.61,4-6.63,1.89-.01,4.9,1.78,5.48,3.42,1.25,3.58-1.34,5.4-4.79,5.94-.27.04-.49.38-.72.58,1.72,6.35,7.19,10.37,13.98,10.28,5.86-.08,10.98-3.83,11.82-10.12.83-6.18.64-12.56.29-18.82-.25-4.3-2.27-8.19-6.78-9.63-4.88-1.56-9.26.08-12.85,3.45-1.37,1.28-2.07,3.28-3.08,4.95-.63-.46-1.26-.93-1.89-1.39Z"/>
  <path class="cls-1" d="M564.04,68.51c5.6-6.51,9.93-8.1,15.3-5.82,4.14,1.75,5.96,6.46,3.06,9.16-1.42,1.32-4.31,1.06-6.54,1.52.08-2.09,0-4.2.32-6.25.11-.68,1.25-1.2,2.08-1.94-5.44-1.92-9.5-1.14-11.07,3.62-3.22,9.74-5.8,19.75-7.76,29.82-.94,4.84,3.88,8.08,8.23,5.55,3.64-2.12,6.32-5.97,9.2-9.25.96-1.09,1.25-2.77,2.2-5.03,1.59,5.27-2.74,12.51-8.23,15.52-6.13,3.36-11.36,1.86-17.21-4.95-5.52,6.44-9.97,8.08-15.36,5.66-4.05-1.82-5.91-6.13-3.21-8.73,1.49-1.43,4.52-1.26,6.86-1.81-.12,2.1-.11,4.22-.45,6.28-.1.62-1.18,1.07-1.83,1.62,4.7,2.55,8.82,1.48,11.12-3.91,2.27-5.31,3.62-11.03,5.1-16.64,1.02-3.85,1.99-7.79,2.22-11.74.36-6.12-4.4-9.27-9.49-5.96-3.28,2.13-5.5,5.94-8.05,9.11-.91,1.13-1.4,2.58-2.69,5.03-.59-6.79,4.74-14.31,10.55-16.62,5.89-2.35,10.28-.79,15.63,5.74Z"/>
  <path class="cls-1" d="M854.22,65.27c-5.34-2.14-9.52-1.24-11.2,3.86-3.17,9.59-5.67,19.45-7.6,29.36-.95,4.88,3.75,8.16,8.14,5.73,3.55-1.96,6.24-5.6,9.05-8.73,1.11-1.24,1.52-3.11,2.43-5.11,1.75,4.39-2.2,11.4-7.66,14.7-6.27,3.8-11.93,2.34-17.63-4.55-5.89,6.43-10.03,7.95-15.35,5.64-4.28-1.85-6.09-6.42-3.14-9.1,1.47-1.33,4.34-1.11,6.58-1.59-.06,2.1.05,4.23-.27,6.29-.11.69-1.3,1.21-2.27,2.05,5.02,2.32,9.38.96,10.8-3.31,3.28-9.86,5.98-20,7.84-30.22.92-5.06-4.28-8.11-8.74-5.28-3.43,2.18-5.86,6-8.57,9.23-.95,1.12-1.41,2.65-2.56,4.89-.96-6.23,4.38-13.94,10.24-16.33,5.97-2.44,10.58-.82,15.65,5.75,3.4-4.36,7.29-7.87,13.38-6.5,3.77.85,6.84,2.79,6.15,7.02-.3,1.81-2.47,3.67-4.25,4.72-.82.48-3.96-.95-3.96-1.51,0-1.92.86-3.87,1.53-5.76.17-.48.86-.79,1.43-1.28Z"/>
  <path class="cls-1" d="M598.21,59.56c5.08,0,10.24.55,15.19-.26,2.09-.34,3.7-3.56,5.71-5.67-.49,3.49-1,7.12-1.55,11.04h-26.38c1.35-1.94,2.2-3.41,3.3-4.67,4.47-5.15,9.13-10.14,13.48-15.39,3.49-4.2,5.7-9.05,4.99-14.7-.56-4.43-2.52-7.99-7.28-9.03-4.92-1.08-8.07.73-10.82,6.12.93.53,2.29.86,2.74,1.67.64,1.17,1.27,3.11.72,3.97-.71,1.12-2.61,2.09-3.94,2.02-.93-.05-2.27-1.84-2.53-3.05-1.03-4.76,2.84-10.49,8.04-12.42,6-2.22,13.44-.07,17.04,4.92,3.45,4.78,3.48,11.76-.82,16.65-4.37,4.98-9.43,9.36-14.25,13.94-1.4,1.32-3.02,2.41-4.54,3.6.3.42.6.84.9,1.26Z"/>
  <path class="cls-1" d="M722.96,72.4c-1.5.27-3,.77-4.51.77-18.97.05-37.94.08-56.91-.04-1.53,0-3.04-1.14-4.56-1.75,1.45-.71,2.9-2.03,4.36-2.04,18.97-.14,37.94-.12,56.91-.04,1.6,0,3.19.75,4.79,1.15-.03.65-.05,1.31-.08,1.96Z"/>
  <path class="cls-1" d="M722.96,91.78c-1.5.33-2.99.93-4.49.94-19.14.06-38.27.04-57.41.03-.82,0-1.79.07-2.43-.33-.72-.44-1.31-1.31-1.58-2.11-.08-.24,1.05-1.09,1.74-1.32.75-.26,1.64-.18,2.47-.18,18.97,0,37.94-.03,56.91.04,1.61,0,3.22.64,4.83.99-.02.65-.03,1.3-.05,1.95Z"/>
  <path class="cls-1" d="M894.36,80.1c1.58-.36,3.17-1.04,4.76-1.05,17.11-.08,34.23-.09,51.34.03,1.53.01,3.05,1.16,4.58,1.78-1.59.71-3.17,2.03-4.77,2.05-16.95.15-33.89.12-50.84.05-1.7,0-3.41-.68-5.11-1.05.02-.6.03-1.2.05-1.81Z"/>
</svg>